<?xml version="1.0" encoding="UTF-8"?>
<svg width="201px" height="122px" viewBox="0 0 201 122" version="1.1" xmlns="http://www.w3.org/2000/svg" xmlns:xlink="http://www.w3.org/1999/xlink">
    <title>空状态</title>
    <defs>
        <linearGradient x1="50%" y1="53.1639753%" x2="48.6584153%" y2="48.3694537%" id="linearGradient-1">
            <stop stop-color="#FFFFFF" stop-opacity="0" offset="0%"></stop>
            <stop stop-color="#E9DDFC" offset="100%"></stop>
        </linearGradient>
        <linearGradient x1="50%" y1="0%" x2="35.7436156%" y2="37.8103739%" id="linearGradient-2">
            <stop stop-color="#E1D1F7" offset="0%"></stop>
            <stop stop-color="#F5EFFD" offset="100%"></stop>
        </linearGradient>
        <linearGradient x1="50%" y1="0%" x2="46.0540985%" y2="28.485173%" id="linearGradient-3">
            <stop stop-color="#F7F1FF" offset="0%"></stop>
            <stop stop-color="#E1D3F4" offset="100%"></stop>
        </linearGradient>
        <linearGradient x1="33.5877426%" y1="71.4532304%" x2="45.0165827%" y2="31.3850892%" id="linearGradient-4">
            <stop stop-color="#955CE6" offset="0%"></stop>
            <stop stop-color="#955CE6" offset="100%"></stop>
        </linearGradient>
        <polygon id="path-5" points="51.7620807 27.964902 104.501143 40.1650658 104.501143 91.924596 51.7620807 77.4740179"></polygon>
        <filter x="-1.9%" y="-1.6%" width="103.8%" height="106.3%" filterUnits="objectBoundingBox" id="filter-6">
            <feOffset dx="0" dy="2" in="SourceAlpha" result="shadowOffsetOuter1"></feOffset>
            <feColorMatrix values="0 0 0 0 0.584313725   0 0 0 0 0.360784314   0 0 0 0 0.901960784  0 0 0 1 0" type="matrix" in="shadowOffsetOuter1"></feColorMatrix>
        </filter>
        <linearGradient x1="49.6737371%" y1="5.71699031%" x2="43.470704%" y2="91.9442808%" id="linearGradient-7">
            <stop stop-color="#B581FF" offset="0%"></stop>
            <stop stop-color="#955CE6" offset="100%"></stop>
        </linearGradient>
        <linearGradient x1="49.3104332%" y1="30.7881803%" x2="36.2001315%" y2="68.1971814%" id="linearGradient-8">
            <stop stop-color="#B581FF" offset="0%"></stop>
            <stop stop-color="#955CE6" offset="100%"></stop>
        </linearGradient>
        <linearGradient x1="49.6578904%" y1="5.71699031%" x2="43.153574%" y2="91.9442808%" id="linearGradient-9">
            <stop stop-color="#B581FF" offset="0%"></stop>
            <stop stop-color="#955CE6" offset="100%"></stop>
        </linearGradient>
        <linearGradient x1="49.8192881%" y1="5.71699031%" x2="46.3835255%" y2="91.9442808%" id="linearGradient-10">
            <stop stop-color="#B581FF" offset="0%"></stop>
            <stop stop-color="#955CE6" offset="100%"></stop>
        </linearGradient>
        <linearGradient x1="49.6499371%" y1="5.71699031%" x2="42.9944105%" y2="91.9442808%" id="linearGradient-11">
            <stop stop-color="#B581FF" offset="0%"></stop>
            <stop stop-color="#955CE6" offset="100%"></stop>
        </linearGradient>
        <linearGradient x1="40.846046%" y1="71.4532304%" x2="47.2204937%" y2="31.3850892%" id="linearGradient-12">
            <stop stop-color="#FFFFFF" stop-opacity="0" offset="0%"></stop>
            <stop stop-color="#955CE6" offset="100%"></stop>
        </linearGradient>
        <polygon id="path-13" points="104.421777 26.6146534 144.640245 40.1650658 144.640245 91.924596 104.87186 76.1237693"></polygon>
        <filter x="-2.5%" y="-1.5%" width="105.0%" height="106.1%" filterUnits="objectBoundingBox" id="filter-14">
            <feOffset dx="0" dy="2" in="SourceAlpha" result="shadowOffsetOuter1"></feOffset>
            <feColorMatrix values="0 0 0 0 0.584313725   0 0 0 0 0.360784314   0 0 0 0 0.901960784  0 0 0 1 0" type="matrix" in="shadowOffsetOuter1"></feColorMatrix>
        </filter>
        <linearGradient x1="73.8557302%" y1="42.1198611%" x2="50%" y2="64.34326%" id="linearGradient-15">
            <stop stop-color="#F8F2FF" offset="0%"></stop>
            <stop stop-color="#F7F1FF" offset="100%"></stop>
        </linearGradient>
        <linearGradient x1="50%" y1="0%" x2="50%" y2="100%" id="linearGradient-16">
            <stop stop-color="#F7F1FF" offset="0%"></stop>
            <stop stop-color="#CEABFF" offset="100%"></stop>
        </linearGradient>
        <linearGradient x1="56.3759639%" y1="40.3550858%" x2="50%" y2="58.859551%" id="linearGradient-17">
            <stop stop-color="#F8F2FF" offset="0%"></stop>
            <stop stop-color="#F7F1FF" offset="100%"></stop>
        </linearGradient>
        <polygon id="path-18" points="13.2676595 0 0 20.4745133 51.2807737 34.2062982 66.1621821 12.2005128"></polygon>
    </defs>
    <g id="2.0.0-Pacdora" stroke="none" stroke-width="1" fill="none" fill-rule="evenodd" opacity="0.849971226">
        <g id="013补充场景操作" transform="translate(-2266.000000, -356.000000)">
            <g id="左侧面板" transform="translate(2249.339310, 32.000000)">
                <g id="空状态" transform="translate(17.000000, 324.212587)">
                    <rect id="bg" x="0" y="4.94579393" width="200" height="116.129032"></rect>
                    <path d="M145.236421,75.8017382 L198.792779,98.925134 C199.525503,99.2414935 200,99.9631963 200,100.761299 L200,120.773577 L200,120.773577 L139.247748,120.773577 L52.2121636,78.0816117 L104.313754,91.924596 L143.685135,75.7873169 C144.183109,75.5832107 144.742327,75.5884094 145.236421,75.8017382 Z" id="Shadow" fill-opacity="0.44" fill="url(#linearGradient-1)"></path>
                    <polygon id="side" fill="url(#linearGradient-2)" transform="translate(71.646274, 45.992180) scale(-1, 1) translate(-71.646274, -45.992180) " points="51.7620807 14.4624159 91.5304664 28.0128282 91.5304664 77.5219441 52.2121636 63.9715318"></polygon>
                    <polygon id="side" fill="url(#linearGradient-3)" points="91.3693734 14.4624159 144.108435 26.6625796 144.108435 76.1716955 91.3693734 63.9715318"></polygon>
                    <polygon id="side" fill="#F7F1FF" points="51.7620807 27.964902 104.501143 40.1650658 104.501143 91.924596 51.7620807 77.4740179"></polygon>
                    <g id="side" opacity="0.133718297" style="mix-blend-mode: multiply;">
                        <use fill="black" fill-opacity="1" filter="url(#filter-6)" xlink:href="#path-5"></use>
                        <use fill="url(#linearGradient-4)" fill-rule="evenodd" xlink:href="#path-5"></use>
                    </g>
                    <g id="Empty" opacity="0.2" transform="translate(57.361285, 56.765041)" fill-rule="nonzero">
                        <polygon id="路径" fill="url(#linearGradient-7)" transform="translate(4.423500, 5.481043) rotate(15.000000) translate(-4.423500, -5.481043) " points="1.1277831 0.689734317 7.47559025 0.689734317 7.47559025 2.17855902 2.83316412 2.17855902 2.83316412 4.61481763 7.23196438 4.61481763 7.23196438 6.04950325 2.83316412 6.04950325 2.83316412 8.75645726 7.71921611 8.75645726 7.71921611 10.2723515 1.1277831 10.2723515"></polygon>
                        <path d="M16.344178,6.11332607 C16.7682675,6.11332607 17.1314505,6.1877673 17.433727,6.33664977 C17.7360036,6.48553224 17.984141,6.68178641 18.1781394,6.92541227 C18.3721377,7.16903813 18.5142528,7.44875671 18.6044846,7.76456801 C18.6947164,8.08037931 18.7398323,8.40521379 18.7398323,8.73907146 L18.7398323,12.7995025 L17.1156599,12.7995025 L17.1156599,9.19925364 C17.1156599,9.00976686 17.1021252,8.8112569 17.0750556,8.60372376 C17.0479861,8.39619061 16.9893354,8.20895963 16.8991036,8.0420308 C16.8088718,7.87510197 16.6848031,7.73749847 16.5268974,7.62922031 C16.3689918,7.52094215 16.1592028,7.46680307 15.8975306,7.46680307 C15.6448816,7.46680307 15.4283253,7.52094215 15.2478617,7.62922031 C15.0673981,7.73749847 14.9185156,7.87735776 14.8012142,8.04879818 C14.6839129,8.2202386 14.5981927,8.41198118 14.5440536,8.62402591 C14.4899145,8.83607064 14.462845,9.04585958 14.462845,9.25339272 L14.462845,12.7995025 L12.8386726,12.7995025 L12.8386726,8.87441916 C12.8386726,8.46837605 12.7416734,8.1322626 12.547675,7.86607879 C12.3536767,7.59989498 12.0491443,7.46680307 11.6340781,7.46680307 C11.3904522,7.46680307 11.1784075,7.51868636 10.9979439,7.62245293 C10.8174803,7.7262195 10.6708536,7.8593114 10.5580638,8.02172864 C10.4452741,8.18414588 10.3595539,8.37137687 10.3009032,8.5834216 C10.2422525,8.79546633 10.2129272,9.00976686 10.2129272,9.22632318 L10.2129272,12.7995025 L8.5887548,12.7995025 L8.5887548,6.30281285 L10.1317186,6.30281285 L10.1317186,7.34499014 L10.1587881,7.34499014 C10.2309736,7.1825729 10.3279728,7.02917884 10.4497857,6.88480796 C10.5715986,6.74043708 10.7159695,6.60960097 10.8828983,6.49229963 C11.0498272,6.37499829 11.2415697,6.28251069 11.458126,6.21483684 C11.6746824,6.14716299 11.9137966,6.11332607 12.1754689,6.11332607 C12.6807669,6.11332607 13.1003448,6.22611582 13.4342025,6.45169532 C13.7680601,6.67727482 14.0252208,6.97503976 14.2056844,7.34499014 C14.4222407,6.94797022 14.7109824,6.64343789 15.0719096,6.43139316 C15.4328368,6.21934843 15.8569263,6.11332607 16.344178,6.11332607 Z" id="路径" fill="url(#linearGradient-8)" transform="translate(13.664294, 9.456414) rotate(15.000000) translate(-13.664294, -9.456414) "></path>
                        <path d="M21.6013394,8.77148961 L21.6013394,9.65485078 L21.6434559,9.65485078 C21.7276887,9.53179549 21.8376594,9.40654279 21.9733679,9.27909267 C22.1090764,9.15164255 22.2752023,9.03737693 22.4717456,8.9362958 C22.668289,8.83521467 22.8905701,8.75171287 23.1385891,8.6857904 C23.3866081,8.61986792 23.6650444,8.58690668 23.9738983,8.58690668 C24.4512178,8.58690668 24.8911005,8.6726059 25.2935463,8.84400434 C25.6959922,9.01540277 26.0422829,9.25052627 26.3324183,9.54937482 C26.6225536,9.84822337 26.8471746,10.1998099 27.0062811,10.6041344 C27.1653876,11.0084589 27.2449409,11.4435473 27.2449409,11.9093994 C27.2449409,12.3752516 27.1677274,12.8125373 27.0133005,13.2212567 C26.8588736,13.629976 26.6389323,13.9859574 26.3534765,14.2892008 C26.0680207,14.5924442 25.72173,14.8341599 25.3146046,15.014348 C24.9074791,15.1945361 24.4465382,15.2846302 23.9317818,15.2846302 C23.4544623,15.2846302 23.0169194,15.1923387 22.6191531,15.0077558 C22.2213869,14.8231728 21.9148729,14.5726674 21.6996111,14.2562395 L21.6715335,14.2562395 L21.6715335,18.264326 L19.9868764,18.264326 L19.9868764,8.77148961 L21.6013394,8.77148961 Z M25.3189501,12.2441504 C25.3189501,12.0013478 25.2780012,11.760713 25.1961035,11.5222461 C25.1142058,11.2837793 24.9913592,11.0691591 24.8275638,10.8783856 C24.6637684,10.6876121 24.4566153,10.5336926 24.2061047,10.416627 C23.955594,10.2995614 23.6617257,10.2410287 23.3244999,10.2410287 C23.006544,10.2410287 22.7223108,10.3017293 22.4718001,10.4231306 C22.2212895,10.544532 22.0069102,10.7006194 21.8286622,10.8913929 C21.6504142,11.0821664 21.5155239,11.2989544 21.4239911,11.5417571 C21.3324584,11.7845597 21.286692,12.0273623 21.286692,12.270165 C21.286692,12.5129676 21.3324584,12.7536024 21.4239911,12.9920693 C21.5155239,13.2305361 21.6504142,13.4451563 21.8286622,13.6359298 C22.0069102,13.8267033 22.2212895,13.9806228 22.4718001,14.0976884 C22.7223108,14.214754 23.006544,14.2732867 23.3244999,14.2732867 C23.6617257,14.2732867 23.955594,14.2125861 24.2061047,14.0911848 C24.4566153,13.9697834 24.6637684,13.813696 24.8275638,13.6229225 C24.9913592,13.432149 25.1142058,13.215361 25.1961035,12.9725583 C25.2780012,12.7297557 25.3189501,12.4869531 25.3189501,12.2441504 Z" id="形状" fill="url(#linearGradient-9)" transform="translate(23.356344, 13.734858) rotate(15.000000) translate(-23.356344, -13.734858) "></path>
                        <path d="M27.8978654,11.9724587 L27.8978654,10.6731208 L29.0347861,10.6731208 L29.0347861,8.79178777 L30.6318889,8.79178777 L30.6318889,10.6731208 L32.2560614,10.6731208 L32.2560614,11.9724587 L30.6318889,11.9724587 L30.6318889,14.9907125 C30.6318889,15.2794542 30.6837722,15.5185685 30.7875388,15.7080553 C30.8913054,15.897542 31.1236523,15.9922854 31.4845795,15.9922854 C31.5928576,15.9922854 31.710159,15.9810065 31.8364835,15.9584485 C31.962808,15.9358906 32.0755977,15.9020536 32.1748527,15.8569377 L32.2289918,17.1292061 C32.0846209,17.1833452 31.9131805,17.2262053 31.7146705,17.2577864 C31.5161606,17.2893676 31.3266738,17.3051581 31.1462102,17.3051581 C30.7130976,17.3051581 30.3611935,17.2442517 30.0904981,17.1224387 C29.8198027,17.0006258 29.6055022,16.833697 29.4475966,16.6216522 C29.2896909,16.4096075 29.1814128,16.1659816 29.1227621,15.8907747 C29.0641114,15.6155677 29.0347861,15.3200585 29.0347861,15.0042472 L29.0347861,11.9724587 L27.8978654,11.9724587 Z" id="路径" fill="url(#linearGradient-10)" transform="translate(30.076963, 13.048473) rotate(15.000000) translate(-30.076963, -13.048473) "></path>
                        <path d="M31.613306,12.1031038 L33.4134304,12.1031038 L35.2270896,16.8267385 L35.2541592,16.8267385 L36.8647968,12.1031038 L38.5566431,12.1031038 L35.4842503,19.9938747 C35.3669489,20.2916397 35.2406244,20.5555677 35.1052767,20.7856588 C34.969929,21.0157499 34.8075118,21.2097482 34.618025,21.3676539 C34.4285382,21.5255595 34.2052145,21.6451167 33.9480539,21.7263253 C33.6908932,21.8075339 33.3818493,21.8481382 33.0209221,21.8481382 C32.8855744,21.8481382 32.7479709,21.8413708 32.6081116,21.8278361 C32.4682523,21.8143013 32.3261373,21.7894876 32.1817664,21.7533948 L32.3171141,20.3457788 C32.4253922,20.3818715 32.5314146,20.4066852 32.6351812,20.42022 C32.7389477,20.4337548 32.8359469,20.4405221 32.9261787,20.4405221 C33.0976191,20.4405221 33.24199,20.42022 33.3592914,20.3796157 C33.4765927,20.3390114 33.5758477,20.2758491 33.6570563,20.1901289 C33.7382649,20.1044087 33.8104504,19.9983863 33.8736126,19.8720618 C33.9367749,19.7457373 34.0044487,19.5968548 34.0766342,19.4254144 L34.4014687,18.5997934 L31.613306,12.1031038 Z" id="路径" fill="url(#linearGradient-11)" transform="translate(35.084975, 16.975621) rotate(15.000000) translate(-35.084975, -16.975621) "></path>
                    </g>
                    <polygon id="side" fill="#F7F1FF" transform="translate(124.531011, 59.269625) scale(-1, 1) translate(-124.531011, -59.269625) " points="104.421777 26.6146534 144.640245 40.1650658 144.640245 91.924596 104.87186 76.1237693"></polygon>
                    <g id="side" opacity="0.133718297" style="mix-blend-mode: multiply;" transform="translate(124.531011, 59.269625) scale(-1, 1) translate(-124.531011, -59.269625) ">
                        <use fill="black" fill-opacity="1" filter="url(#filter-14)" xlink:href="#path-13"></use>
                        <use fill="url(#linearGradient-12)" fill-rule="evenodd" xlink:href="#path-13"></use>
                    </g>
                    <polygon id="lid" fill="url(#linearGradient-15)" transform="translate(131.423745, 44.412003) scale(-1, 1) translate(-131.423745, -44.412003) " points="118.374316 26.5782101 104.313754 46.1796733 145.014663 62.245795 158.533736 39.8197494"></polygon>
                    <g id="lines" opacity="0.5" transform="translate(119.332781, 12.125237) rotate(46.000000) translate(-119.332781, -12.125237) translate(109.430958, 4.923911)" fill="url(#linearGradient-16)" fill-rule="nonzero">
                        <path d="M11.078684,7.28505032 L8.80782657,2.89524205 C8.56976062,2.43503532 8.00833347,2.25738234 7.55384394,2.49844301 C7.09935441,2.73950367 6.92390842,3.30799321 7.16197437,3.76819994 L9.43283181,8.15800821 C9.67089775,8.61821493 10.2323249,8.79586792 10.6868144,8.55480725 C11.141304,8.31374659 11.3167499,7.74525704 11.078684,7.28505032 Z" id="Line"></path>
                        <path d="M5.36600146,12.3216832 L3.09514402,7.93187489 C2.85707808,7.47166816 2.29565093,7.29401518 1.8411614,7.53507585 C1.38667186,7.77613651 1.21122588,8.34462605 1.44929183,8.80483278 L3.72014926,13.194641 C3.95821521,13.6548478 4.51964236,13.8325008 4.97413189,13.5914401 C5.42862142,13.3503794 5.60406741,12.7818899 5.36600146,12.3216832 Z" id="Line-Copy" transform="translate(3.407647, 10.563258) rotate(-24.000000) translate(-3.407647, -10.563258) "></path>
                        <path d="M18.0159411,5.66716952 L15.7450836,1.27736125 C15.5070177,0.817154523 14.9455905,0.639501542 14.491101,0.880562207 C14.0366115,1.12162287 13.8611655,1.69011241 14.0992314,2.15031914 L16.3700889,6.54012741 C16.6081548,7.00033414 17.169582,7.17798712 17.6240715,6.93692645 C18.078561,6.69586579 18.254007,6.12737624 18.0159411,5.66716952 Z" id="Line-Copy-2" transform="translate(16.057586, 3.908744) rotate(30.000000) translate(-16.057586, -3.908744) "></path>
                    </g>
                    <g id="lid" opacity="0.600000024" transform="translate(110.722937, 70.272692) rotate(1.000000) translate(-110.722937, -70.272692) translate(106.672191, 54.969874)" fill="#DBC6F9">
                        <polygon id="Path-4" transform="translate(1.987048, 15.345230) rotate(3.000000) translate(-1.987048, -15.345230) " points="1.06173938 4.64447177 1.03713075 6.89900346 0.824702039 8.51264913 1.03713075 9.87215795 1.47367888 11.9087071 2.42975064 30.5371854 2.42975064 24.7221393 3.14939403 24.1696925 2.42975064 21.6749644 1.8455004 11.9087071 1.57792958 9.45869226 1.8455004 8.51264913 1.47367888 6.89900346 1.03713075 0.153273701"></polygon>
                        <polygon id="Path-4-Copy" transform="translate(4.463932, 16.680015) scale(-1, -1) rotate(6.000000) translate(-4.463932, -16.680015) " points="3.57284904 12.4873914 4.00939717 14.9741593 4.96546893 24.2211535 4.96546893 21.3346216 5.35501438 22.2285763 4.96546893 19.8220338 4.3812187 14.9741593 4.3812187 13.2883894 4.00939717 12.4873914 3.57284904 9.13887724"></polygon>
                        <polygon id="Path-4-Copy-2" transform="translate(6.590826, 16.699446) scale(1, -1) rotate(3.000000) translate(-6.590826, -16.699446) " points="6.01374417 6.970809 6.28354414 9.00358464 6.14864416 10.4738736 6.28354414 11.7126033 6.56076814 13.5682248 7.1679086 30.541744 7.1679086 25.2433083 7.13056653 23.5348904 7.1679086 22.4668452 6.79688838 13.5682248 6.76555359 11.3963612 6.79688838 10.4738736 6.56076814 9.00358464 6.28354414 2.85714735"></polygon>
                    </g>
                    <g id="lid" transform="translate(38.709677, 27.514819)">
                        <mask id="mask-19" fill="white">
                            <use xlink:href="#path-18"></use>
                        </mask>
                        <use id="Mask" fill="url(#linearGradient-17)" xlink:href="#path-18"></use>
                        <g id="Group-3-Copy" opacity="0.400000006" mask="url(#mask-19)" fill="#DBC6F9">
                            <g transform="translate(30.253593, 5.414092) scale(-1, -1) rotate(33.000000) translate(-30.253593, -5.414092) translate(26.323414, -9.817876)">
                                <polygon id="Path-4" transform="translate(1.955839, 15.231968) rotate(3.000000) translate(-1.955839, -15.231968) " points="1.03052992 4.53121051 1.00592129 6.7857422 0.793492582 8.39938787 1.00592129 9.75889669 1.44246942 11.7954458 2.39854118 30.4239241 2.39854118 24.6088781 3.11818457 24.0564312 2.39854118 21.5617032 1.81429094 11.7954458 1.54672012 9.345431 1.81429094 8.39938787 1.44246942 6.7857422 1.00592129 0.0400124416"></polygon>
                                <polygon id="Path-4-Copy" transform="translate(4.432722, 16.566754) scale(-1, -1) rotate(6.000000) translate(-4.432722, -16.566754) " points="3.54163958 12.3741302 3.97818771 14.860898 4.93425947 24.1078922 4.93425947 21.2213603 5.32380492 22.115315 4.93425947 19.7087725 4.35000924 14.860898 4.35000924 13.1751281 3.97818771 12.3741302 3.54163958 9.02561598"></polygon>
                                <polygon id="Path-4-Copy-2" transform="translate(6.559617, 16.586184) scale(1, -1) rotate(3.000000) translate(-6.559617, -16.586184) " points="5.98253472 6.85754774 6.25233468 8.89032338 6.1174347 10.3606123 6.25233468 11.599342 6.52955868 13.4549636 7.13669914 30.4284828 7.13669914 25.130047 7.09935707 23.4216291 7.13669914 22.3535839 6.76567892 13.4549636 6.73434413 11.2830999 6.76567892 10.3606123 6.52955868 8.89032338 6.25233468 2.74388609"></polygon>
                            </g>
                        </g>
                    </g>
                </g>
            </g>
        </g>
    </g>
</svg>